<?xml version="1.0" encoding="UTF-8"?>
<svg id="Keyboard-Double-Arrow-Down--Streamline-Outlined-Material" xmlns="http://www.w3.org/2000/svg" viewBox="0 0 17.41 19.25">
  <defs>
    <style>
      .cls-1 {
        fill: #fff;
        stroke: #fff;
        stroke-miterlimit: 10;
      }
    </style>
  </defs>
  <g id="keyboard-double-arrow-down">
    <path id="Vector" class="cls-1" d="M9.6,17.65c-.49.49-1.29.49-1.79,0L1.41,11.24c-.39-.39-.39-1.01,0-1.4h0c.39-.39,1.01-.39,1.4,0l5.9,5.9,5.9-5.9c.39-.39,1.01-.39,1.4,0h0c.39.39.39,1.01,0,1.4l-6.41,6.41ZM9.6,9.22c-.49.49-1.29.49-1.79,0L1.41,2.81c-.39-.39-.39-1.01,0-1.4h0c.39-.39,1.01-.39,1.4,0l5.9,5.9L14.61,1.41c.39-.39,1.01-.39,1.4,0h0c.39.39.39,1.01,0,1.4l-6.41,6.41Z"/>
  </g>
</svg>